<svg id="visual" viewBox="0 0 900 600" width="900" height="600" xmlns="http://www.w3.org/2000/svg" xmlns:xlink="http://www.w3.org/1999/xlink" version="1.1"><rect x="0" y="0" width="900" height="600" fill="#001122"></rect><path d="M0 507L21.5 496.3C43 485.7 86 464.3 128.8 464.7C171.7 465 214.3 487 257.2 477.7C300 468.3 343 427.7 385.8 422.3C428.7 417 471.3 447 514.2 469.2C557 491.3 600 505.7 642.8 495.7C685.7 485.7 728.3 451.3 771.2 432.8C814 414.3 857 411.7 878.5 410.3L900 409L900 601L878.5 601C857 601 814 601 771.2 601C728.3 601 685.7 601 642.8 601C600 601 557 601 514.2 601C471.3 601 428.7 601 385.8 601C343 601 300 601 257.2 601C214.3 601 171.7 601 128.8 601C86 601 43 601 21.5 601L0 601Z" fill="#FFFFFF" stroke-linecap="round" stroke-linejoin="miter"></path></svg>